<?xml version="1.0" encoding="UTF-8" standalone="no"?>
<svg
   xmlns:dc="http://purl.org/dc/elements/1.1/"
   xmlns:cc="http://creativecommons.org/ns#"
   xmlns:rdf="http://www.w3.org/1999/02/22-rdf-syntax-ns#"
   xmlns:svg="http://www.w3.org/2000/svg"
   xmlns="http://www.w3.org/2000/svg"
   xmlns:sodipodi="http://sodipodi.sourceforge.net/DTD/sodipodi-0.dtd"
   xmlns:inkscape="http://www.inkscape.org/namespaces/inkscape"
   version="1.1"
   x="0px"
   y="0px"
   viewBox="0 0 109.98902 110.00027"
   enable-background="new 0 0 100 100"
   xml:space="preserve"
   id="svg12"
   sodipodi:docname="noun_943595_cc.svg"
   width="109.98902"
   height="110.00027"
   inkscape:version="0.92.2 5c3e80d, 2017-08-06"><metadata
     id="metadata18"><rdf:RDF><cc:Work
         rdf:about=""><dc:format>image/svg+xml</dc:format><dc:type
           rdf:resource="http://purl.org/dc/dcmitype/StillImage" /><dc:title></dc:title></cc:Work></rdf:RDF></metadata><defs
     id="defs16" /><sodipodi:namedview
     pagecolor="#ffffff"
     bordercolor="#666666"
     borderopacity="1"
     objecttolerance="10"
     gridtolerance="10"
     guidetolerance="10"
     inkscape:pageopacity="0"
     inkscape:pageshadow="2"
     inkscape:window-width="640"
     inkscape:window-height="480"
     id="namedview14"
     showgrid="false"
     fit-margin-top="10"
     fit-margin-left="10"
     fit-margin-right="10"
     fit-margin-bottom="10"
     inkscape:zoom="1.888"
     inkscape:cx="55.218"
     inkscape:cy="42.718"
     inkscape:window-x="0"
     inkscape:window-y="0"
     inkscape:window-maximized="0"
     inkscape:current-layer="svg12" /><g
     id="g6"
     transform="translate(5.218,4.7822681)"><path
       d="M 92.423,81.112 91.448,80.137 C 83.934,72.623 70.202,58.891 58.822,47.502 l 22.299,-22.299 4.778,0.334 c 0.035,0.002 0.07,0.003 0.104,0.003 0.539,0 1.041,-0.292 1.305,-0.769 l 7.275,-13.113 c 0.324,-0.582 0.222,-1.308 -0.25,-1.779 L 90.12,5.667 C 89.65,5.196 88.923,5.094 88.341,5.417 l -13.113,7.276 c -0.507,0.281 -0.805,0.831 -0.765,1.409 l 0.334,4.776 -22.299,22.299 C 46.8,35.479 42.372,31.051 40.712,29.391 42.974,22.818 41.327,15.529 36.369,10.571 31.481,5.684 24.37,3.983 17.808,6.133 17.785,6.141 17.766,6.153 17.743,6.162 17.719,6.171 17.698,6.182 17.675,6.192 17.51,6.264 17.364,6.361 17.24,6.481 17.233,6.488 17.224,6.489 17.217,6.496 17.208,6.505 17.205,6.517 17.197,6.526 17.075,6.654 16.978,6.8 16.908,6.961 16.898,6.983 16.89,7.005 16.882,7.028 16.823,7.184 16.79,7.349 16.786,7.52 c 0,0.023 0,0.044 10e-4,0.067 0.003,0.143 0.02,0.286 0.067,0.429 0.008,0.024 0.021,0.044 0.03,0.067 0.008,0.022 0.019,0.043 0.029,0.064 0.073,0.165 0.169,0.311 0.289,0.435 0.007,0.007 0.009,0.017 0.016,0.024 l 7.089,7.089 c 0.676,0.676 1.048,1.573 1.049,2.527 10e-4,0.953 -0.37,1.848 -1.044,2.522 L 20.757,24.3 C 19.365,25.691 17.1,25.687 15.708,24.295 L 8.619,17.206 C 8.612,17.199 8.603,17.198 8.597,17.191 8.473,17.071 8.326,16.974 8.161,16.901 8.138,16.891 8.117,16.88 8.094,16.871 8.071,16.862 8.051,16.849 8.028,16.842 7.887,16.796 7.744,16.779 7.603,16.776 7.579,16.775 7.556,16.774 7.532,16.775 c -0.17,0.004 -0.335,0.037 -0.491,0.096 -0.022,0.008 -0.043,0.016 -0.065,0.026 -0.162,0.07 -0.309,0.168 -0.437,0.291 -0.009,0.008 -0.02,0.011 -0.029,0.019 -0.007,0.007 -0.008,0.016 -0.015,0.022 -0.12,0.124 -0.217,0.27 -0.289,0.435 -0.01,0.023 -0.021,0.045 -0.03,0.069 -0.009,0.023 -0.021,0.043 -0.029,0.066 -2.143,6.566 -0.443,13.677 4.438,18.559 3.495,3.494 8.147,5.349 12.891,5.349 1.986,0 3.984,-0.346 5.923,-1.012 l 7.518,7.519 c -0.131,-0.01 -0.257,-0.038 -0.389,-0.038 -1.417,0 -2.75,0.552 -3.751,1.554 L 6.337,76.167 c -1.003,1.002 -1.555,2.335 -1.555,3.752 0,1.417 0.552,2.75 1.555,3.752 l 2.295,2.296 c 10e-4,0.001 10e-4,0.002 10e-4,0.002 0.001,0.001 0.002,0.001 0.002,0.001 l 7.693,7.694 c 1.002,1.002 2.335,1.554 3.752,1.554 1.418,0 2.751,-0.552 3.752,-1.554 L 50.27,67.225 c 1.003,-1.002 1.555,-2.335 1.555,-3.752 0,-0.131 -0.028,-0.257 -0.038,-0.387 l 29.321,29.34 c 1.557,1.557 3.603,2.335 5.652,2.335 2.048,0 4.098,-0.778 5.662,-2.335 1.508,-1.507 2.338,-3.514 2.338,-5.652 10e-4,-2.145 -0.83,-4.155 -2.337,-5.662 z M 77.389,20.508 c 0.007,-0.007 0.009,-0.017 0.016,-0.024 0.122,-0.127 0.219,-0.274 0.29,-0.437 0.009,-0.02 0.019,-0.038 0.027,-0.058 0.06,-0.154 0.091,-0.32 0.096,-0.492 0.001,-0.025 0.003,-0.049 0.002,-0.075 0,-0.025 0.004,-0.048 0.002,-0.073 l -0.315,-4.507 11.298,-6.269 2.622,2.623 -6.269,11.298 -4.507,-0.316 c -0.026,-0.002 -0.05,0.003 -0.075,0.002 -0.023,0 -0.045,0.001 -0.068,0.002 -0.172,0.004 -0.338,0.036 -0.493,0.096 -0.023,0.009 -0.043,0.02 -0.066,0.03 -0.157,0.07 -0.301,0.164 -0.425,0.282 -0.01,0.009 -0.022,0.012 -0.032,0.021 L 51.5,50.604 49.396,48.5 Z M 30.87,37.945 c -0.41,-0.429 -1.054,-0.59 -1.638,-0.352 -5.698,2.312 -12.191,1 -16.539,-3.347 C 9.221,30.773 7.682,25.951 8.4,21.208 l 5.196,5.197 c 1.28,1.279 2.96,1.919 4.64,1.919 1.677,0 3.354,-0.638 4.63,-1.914 l 3.555,-3.555 c 1.238,-1.238 1.919,-2.883 1.918,-4.634 -10e-4,-1.75 -0.684,-3.397 -1.924,-4.636 L 21.216,8.386 c 4.741,-0.722 9.563,0.818 13.041,4.295 4.282,4.282 5.612,10.643 3.437,16.277 l -1.562,1.572 c -0.581,0.584 -0.577,1.529 0.007,2.11 0.291,0.29 0.672,0.434 1.052,0.434 0.384,0 0.767,-0.147 1.059,-0.441 l 0.739,-0.743 c 1.872,1.872 6.078,6.078 11.397,11.397 l -3.108,3.108 c -0.806,-0.771 -1.855,-1.202 -2.973,-1.202 -1.152,0 -2.235,0.449 -3.049,1.263 l -0.938,0.938 z M 15.087,88.201 11.8,84.913 34.619,62.094 c 0.878,-0.878 2.41,-0.878 3.288,0 0.907,0.906 0.907,2.38 0,3.287 z M 48.162,65.115 21.723,91.553 c -0.876,0.876 -2.408,0.876 -3.284,0 l -1.242,-1.242 22.82,-22.82 c 2.07,-2.07 2.07,-5.438 0,-7.508 -1.003,-1.003 -2.336,-1.556 -3.754,-1.556 -1.419,0 -2.752,0.552 -3.754,1.556 L 9.689,82.803 8.447,81.56 c -0.438,-0.439 -0.68,-1.022 -0.68,-1.642 0,-0.62 0.242,-1.203 0.68,-1.642 L 34.885,51.837 c 0.438,-0.438 1.021,-0.68 1.641,-0.68 0.621,0 1.204,0.241 1.642,0.68 l 9.993,9.993 c 0.438,0.438 0.68,1.021 0.68,1.641 10e-4,0.622 -0.241,1.205 -0.679,1.644 z m 3.27,-8.483 -2.124,2.124 -8.065,-8.064 2.125,-2.124 c 0.5,-0.5 1.374,-0.501 1.876,0 l 0.978,0.977 c 0.003,0.003 0.004,0.008 0.008,0.012 l 4.214,4.214 c 0.003,0.003 0.008,0.004 0.012,0.008 l 0.978,0.978 c 0.515,0.517 0.515,1.358 -0.002,1.875 z m 38.883,33.681 c -1.961,1.952 -5.144,1.953 -7.095,0.002 L 52.605,59.68 53.543,58.742 c 1.658,-1.658 1.673,-4.336 0.061,-6.022 l 3.108,-3.108 c 11.381,11.39 25.113,25.121 32.626,32.635 l 0.975,0.975 c 0.943,0.943 1.463,2.204 1.463,3.551 0,1.34 -0.52,2.598 -1.461,3.54 z"
       id="path2"
       inkscape:connector-curvature="0" /><circle
       cx="86.765999"
       cy="86.768997"
       r="2.4030001"
       id="circle4" /></g></svg>