<?xml version="1.0" encoding="UTF-8"?>
<svg width="25px" height="25px" viewBox="0 0 25 25" version="1.1" xmlns="http://www.w3.org/2000/svg" xmlns:xlink="http://www.w3.org/1999/xlink">
    <title>Group 9</title>
    <g id="tunnel" stroke="none" stroke-width="1" fill="none" fill-rule="evenodd">
        <g id="fiche-produit" transform="translate(-560.000000, -313.000000)">
            <g id="Group-9" transform="translate(560.000000, 313.000000)">
                <circle id="Oval" fill="#61A5A7" cx="12.5" cy="12.5" r="12.5"></circle>
                <g id="thermometer" transform="translate(9.000000, 5.000000)" fill="#FFFFFF" fill-rule="nonzero">
                    <path d="M6.24999023,8.45487305 L6.24999023,2.5 C6.24999023,1.11928711 5.13070312,0 3.75,0 C2.36929688,0 1.25000977,1.11928711 1.25000977,2.5 L1.25000977,8.45484375 C0.4828125,9.14150391 0,10.1393848 0,11.25 C0,13.321084 1.67894531,15 3.75,15 C5.82105469,15 7.5,13.321084 7.5,11.25 C7.5,10.1393848 7.0171875,9.14150391 6.24999023,8.45487305 Z M3.75000977,13.7499805 C2.36929688,13.7499805 1.25000977,12.6307031 1.25000977,11.25 C1.25000977,10.5282129 1.55589844,9.85863281 2.08365234,9.3862793 L2.50001953,9.01362305 L2.50001953,2.49999023 C2.50001953,1.80963867 3.05967773,1.24998047 3.7500293,1.24998047 C4.44038086,1.24998047 5.00003906,1.80960938 5.00003906,2.49999023 L5.00003906,9.01362305 L5.41640625,9.3862793 C5.94416016,9.85863281 6.25004883,10.5281836 6.25004883,11.25 C6.24999023,12.6307031 5.13070312,13.7499805 3.75000977,13.7499805 Z" id="Shape"></path>
                    <rect id="Rectangle" x="3.12500977" y="5.00000977" width="1.25000977" height="7.5"></rect>
                    <circle id="Oval" cx="3.75" cy="11.25" r="1.875"></circle>
                </g>
            </g>
        </g>
    </g>
</svg>