<?xml version="1.0" encoding="UTF-8"?>
<svg width="25px" height="25px" viewBox="0 0 25 25" version="1.1" xmlns="http://www.w3.org/2000/svg" xmlns:xlink="http://www.w3.org/1999/xlink">
    <title>Group 9</title>
    <g id="tunnel" stroke="none" stroke-width="1" fill="none" fill-rule="evenodd">
        <g id="popin-demarrage" transform="translate(-630.000000, -245.000000)">
            <g id="Group-9" transform="translate(630.000000, 245.000000)">
                <circle id="Oval" fill="#FAB84C" cx="12.5" cy="12.5" r="12.5"></circle>
                <g id="wheat-(1)" transform="translate(9.000000, 5.000000)" fill="#FFFFFF" fill-rule="nonzero">
                    <path d="M7.91015625,2.2265625 C7.91015625,1.98386719 7.71339844,1.78710937 7.47070313,1.78710937 C7.22800781,1.78710937 7.03125,1.98386719 7.03125,2.2265625 L7.03125,3.54492188 L6.59179688,3.54492188 C6.28567383,3.54492188 5.98998047,3.59009766 5.71072266,3.67371094 C5.7619043,3.44707031 5.78830078,3.21260742 5.78830078,2.97363281 C5.78830078,2.14151367 5.46966797,1.36379883 4.89099609,0.783193359 L4.27289063,0.1359375 C4.18998047,0.0491308594 4.07513672,0 3.95507813,0 C3.83501953,0 3.72017578,0.0491308594 3.63726562,0.1359375 L3.01916016,0.783193359 C2.49650391,1.3077832 2.18208984,2.02948242 2.13008789,2.77491211 C1.87136719,2.70407227 1.59925781,2.66601562 1.31835937,2.66601562 L0.87890625,2.66601562 L0.87890625,1.34765625 C0.87890625,1.10496094 0.682148437,0.908203125 0.439453125,0.908203125 C0.196757812,0.908203125 -8.32667268e-16,1.10496094 -8.32667268e-16,1.34765625 L-8.32667268e-16,3.984375 C-8.32667268e-16,4.45259766 0.106435547,4.90936523 0.306621094,5.32327148 C0.128876953,5.37960938 -8.32667268e-16,5.54581055 -8.32667268e-16,5.7421875 L-8.32667268e-16,6.62109375 C-8.32667268e-16,7.08931641 0.106435547,7.54608398 0.306621094,7.95999023 C0.128876953,8.01632813 -8.32667268e-16,8.1825293 -8.32667268e-16,8.37890625 L-8.32667268e-16,9.2578125 C-8.32667268e-16,10.9540137 1.3799707,12.3339844 3.07617188,12.3339844 L3.515625,12.3339844 L3.515625,14.5605469 C3.515625,14.8032422 3.71238281,15 3.95507813,15 C4.19777344,15 4.39453125,14.8032422 4.39453125,14.5605469 L4.39453125,13.2128906 L4.83398438,13.2128906 C6.53018555,13.2128906 7.91015625,11.8329199 7.91015625,10.1367188 L7.91015625,9.2578125 C7.91015625,9.06143555 7.7812793,8.89523438 7.60353516,8.83889648 C7.8037207,8.42499023 7.91015625,7.96822266 7.91015625,7.5 L7.91015625,6.62109375 C7.91015625,6.4247168 7.7812793,6.25851563 7.60353516,6.20217773 C7.8037207,5.78827148 7.91015625,5.33150391 7.91015625,4.86328125 C7.91015625,4.54081055 7.91015625,2.5096875 7.91015625,2.2265625 Z M1.31853516,7.93945312 C1.03400391,7.56055664 0.87890625,7.09918945 0.87890625,6.62109375 L0.87890625,6.18164062 L1.31835938,6.18164062 C2.52993164,6.18164062 3.515625,7.16733398 3.515625,8.37890625 L3.515625,8.86511719 C2.9569043,8.29435547 2.17842773,7.93951172 1.31853516,7.93945312 Z M4.39453125,9.2578125 C4.39453125,8.04624023 5.38022461,7.06054688 6.59179688,7.06054688 L7.03125,7.06054688 L7.03125,7.5 C7.03125,7.9780957 6.87618164,8.43946289 6.59162109,8.81835938 C5.73172852,8.81841797 4.95325195,9.17326172 4.39453125,9.74402344 L4.39453125,9.2578125 Z M7.03125,4.42382812 L7.03125,4.86328125 C7.03125,5.34137695 6.87618164,5.80274414 6.59162109,6.18164062 C5.73172852,6.18169922 4.95325195,6.53654297 4.39453125,7.10730469 L4.39453125,6.62109375 C4.39453125,5.40952148 5.38022461,4.42382812 6.59179688,4.42382812 L7.03125,4.42382812 Z M3.65138672,1.39374023 L3.95507813,1.07575195 C4.24461914,1.37888672 4.25994141,1.39511719 4.26583008,1.40097656 C5.11828125,2.25345703 5.11828125,3.69383789 4.26583008,4.54628906 L4.18520508,4.62691406 C3.95188477,4.02925781 3.53680664,3.52198242 3.00829102,3.17314453 C2.95766602,2.55445313 3.15099609,1.92038086 3.65138672,1.39374023 L3.65138672,1.39374023 Z M3.515625,5.7421875 L3.515625,6.22839844 C2.9569043,5.65763672 2.17842773,5.30276367 1.31853516,5.30273438 C1.03400391,4.92383789 0.87890625,4.4624707 0.87890625,3.984375 L0.87890625,3.54492188 L1.31835938,3.54492188 C2.52993164,3.54492188 3.515625,4.53061523 3.515625,5.7421875 Z M0.87890625,9.2578125 L0.87890625,8.81835938 L1.31835938,8.81835938 C2.52993164,8.81835938 3.515625,9.80405273 3.515625,11.015625 L3.515625,11.4550781 L3.07617188,11.4550781 C1.86459961,11.4550781 0.87890625,10.4693848 0.87890625,9.2578125 Z M7.03125,10.1367188 C7.03125,11.348291 6.04555664,12.3339844 4.83398438,12.3339844 L4.39453125,12.3339844 L4.39453125,11.8945312 C4.39453125,10.682959 5.38022461,9.69726562 6.59179688,9.69726562 L7.03125,9.69726562 L7.03125,10.1367188 Z" id="Shape"></path>
                </g>
            </g>
        </g>
    </g>
</svg>