<?xml version="1.0" encoding="UTF-8"?>
<svg width="25px" height="25px" viewBox="0 0 25 25" version="1.1" xmlns="http://www.w3.org/2000/svg" xmlns:xlink="http://www.w3.org/1999/xlink">
    <title>Group 11</title>
    <g id="tunnel" stroke="none" stroke-width="1" fill="none" fill-rule="evenodd">
        <g id="popin-demarrage" transform="translate(-658.000000, -245.000000)">
            <g id="Group-11" transform="translate(658.000000, 245.000000)">
                <g id="Group-9" fill="#34BEF0">
                    <circle id="Oval" cx="12.5" cy="12.5" r="12.5"></circle>
                </g>
                <g id="frozen-(1)" transform="translate(5.000000, 5.000000)" fill="#FFFFFF" fill-rule="nonzero">
                    <path d="M13.5251999,8.30211639 L11.5235138,9.45774079 L10.2374268,8.71524812 L11.7588043,7.83691406 C11.8953323,7.75806428 11.9794464,7.61249543 11.9794464,7.45479583 C11.9794464,7.29721069 11.8953323,7.15152741 11.7588043,7.07279206 L10.1591492,6.1491394 L11.5233993,5.36144256 L13.5251999,6.5171814 C13.5946655,6.55735017 13.6705399,6.57634734 13.7453842,6.57634734 C13.8979339,6.57634734 14.0461349,6.49726869 14.1278458,6.35570525 C14.2497253,6.1446762 14.1773987,5.87482453 13.9663696,5.75305939 L12.4058533,4.85206605 L13.505516,4.21703338 C13.7165451,4.09526824 13.7888718,3.82541657 13.6669922,3.61438752 C13.5452271,3.40335847 13.2753754,3.33103181 13.0643463,3.45302581 L11.9645691,4.08782959 L11.9645691,2.28584291 C11.9645691,2.04219817 11.7670441,1.84467316 11.5233993,1.84467316 C11.2797546,1.84467316 11.0822296,2.04219817 11.0822296,2.28584291 L11.0822296,4.59732056 L9.75711823,5.36235809 L9.75711823,3.60557555 C9.75711823,3.44799041 9.67300415,3.30230713 9.53647614,3.22345734 C9.39994811,3.14472199 9.2318344,3.14472199 9.0953064,3.22345734 L7.53467561,4.12445068 L7.53467561,2.54905699 L9.53647614,1.39331818 C9.7475052,1.27155305 9.81983186,1.00170135 9.69795229,0.790672295 C9.57607269,0.579643242 9.30633545,0.507431016 9.0953064,0.629196152 L7.53467561,1.53018952 L7.53467561,0.441169746 C7.53467561,0.197525039 7.33715057,0 7.09350586,0 C6.84986115,0 6.65233611,0.197525039 6.65233611,0.441169746 L6.65233611,1.53018952 L5.09170532,0.629196152 C4.8807907,0.507316582 4.61082457,0.579643242 4.48905943,0.790672295 C4.3672943,1.00170135 4.43950652,1.27155305 4.65053558,1.39331818 L6.65233611,2.54905699 L6.65233611,4.12445068 L5.09170532,3.22345734 C4.95529175,3.14460756 4.78706361,3.14460756 4.65053558,3.22345734 C4.51400757,3.30230713 4.43000795,3.44787598 4.43000795,3.60557555 L4.43000795,5.36235809 L3.10478209,4.59720612 L3.10478209,2.28584291 C3.10478209,2.04219817 2.90725708,1.84467316 2.66361237,1.84467316 C2.41996764,1.84467316 2.22244263,2.04219817 2.22244263,2.28584291 L2.22244263,4.08782959 L1.27922057,3.54331969 C1.06819154,3.42144012 0.798454277,3.49376678 0.676574707,3.70479583 C0.55480957,3.91582488 0.62713623,4.18567658 0.83805085,4.30744172 L1.78127288,4.85195159 L0.22064209,5.75294496 C0.00961303711,5.87482453 -0.0625991895,6.14456177 0.0591659473,6.35559082 C0.140876777,6.49715423 0.289192207,6.57634734 0.44162751,6.57634734 C0.516471855,6.57634734 0.592346191,6.5572357 0.661811836,6.51706696 L2.66361237,5.36132812 L4.02797698,6.1491394 L2.42820738,7.0726776 C2.29167937,7.15152741 2.20756529,7.29709626 2.20756529,7.45479583 C2.20756529,7.612381 2.29167937,7.75806428 2.42820738,7.83679963 L3.94969939,8.71524812 L2.66361237,9.45774079 L0.661811836,8.30200195 C0.450782783,8.18012238 0.180931084,8.25244904 0.0591659473,8.4634781 C-0.0625991895,8.67450715 0.00961303711,8.94435882 0.22064209,9.06612396 L1.78127288,9.96711732 L0.83805085,10.5116272 C0.62713623,10.6335068 0.55480957,10.903244 0.676574707,11.1142731 C0.758285508,11.2558365 0.906600937,11.3350296 1.05903627,11.3350296 C1.13388062,11.3350296 1.20975495,11.315918 1.27922057,11.2757492 L2.22244263,10.7312393 L2.22244263,12.5333405 C2.22244263,12.7769852 2.41996764,12.9745102 2.66361237,12.9745102 C2.90725708,12.9745102 3.10478209,12.7769852 3.10478209,12.5333405 L3.10478209,10.2218628 L4.43000795,9.4567108 L4.43000795,11.3040161 C4.43000795,11.4616013 4.51400757,11.6072845 4.65053558,11.6860199 C4.78706361,11.7648697 4.95529175,11.7648697 5.09170532,11.6860199 L6.65233611,10.785141 L6.65233611,12.2701263 L4.65053558,13.4258652 C4.43950652,13.5476303 4.3672943,13.817482 4.48905943,14.0285111 C4.61093903,14.2395401 4.8807907,14.3118668 5.09170532,14.1899872 L6.65233611,13.2889938 L6.65233611,14.5588303 C6.65233611,14.802475 6.84986115,15 7.09350586,15 C7.33715057,15 7.53467561,14.802475 7.53467561,14.5588303 L7.53467561,13.2889938 L9.0953064,14.1899872 C9.16477204,14.2301559 9.24064635,14.2491531 9.31549072,14.2491531 C9.46792603,14.2491531 9.61624146,14.1700745 9.69795229,14.0285111 C9.81983186,13.817482 9.7475052,13.5476303 9.53647614,13.4258652 L7.53467561,12.2701263 L7.53467561,10.785141 L9.0953064,11.6861343 C9.16351318,11.725502 9.23973082,11.7453003 9.31594849,11.7453003 C9.39205169,11.7453003 9.46826936,11.725502 9.53647614,11.6861343 C9.67300415,11.6072845 9.75711823,11.4617157 9.75711823,11.3041305 L9.75711823,9.45682526 L11.0823441,10.2219772 L11.0823441,12.5334549 C11.0823441,12.7770996 11.2798691,12.9746246 11.5235138,12.9746246 C11.7671585,12.9746246 11.9646835,12.7770996 11.9646835,12.5334549 L11.9646835,10.7313538 L13.0643463,11.366272 C13.1338119,11.4064407 13.2096863,11.4255524 13.2845306,11.4255524 C13.4370804,11.4255524 13.5852814,11.3463592 13.6669922,11.2047958 C13.7888718,10.9937668 13.7165451,10.7239151 13.505516,10.60215 L12.4058533,9.96723176 L13.9664841,9.06623842 C14.1775131,8.94447328 14.2497253,8.67462158 14.1279602,8.46359253 C14.0060806,8.25244904 13.7362289,8.18023682 13.5251999,8.30211639 Z M10.6559372,7.45479583 L9.35508727,8.20587158 L7.97584535,7.40959166 L9.27680971,6.65851594 L10.6559372,7.45479583 Z M8.87466431,4.36969758 L8.87466431,5.87184905 L7.53467561,6.64546966 L7.53467561,5.14331818 L8.87466431,4.36969758 Z M5.31234741,4.36969758 L6.65233611,5.14331818 L6.65233611,6.64546966 L5.31234741,5.87184905 L5.31234741,4.36969758 Z M3.53118896,7.45479583 L4.91031647,6.65851594 L6.21116637,7.40959166 L4.83203889,8.20587158 L3.53118896,7.45479583 Z M5.31234741,10.5398941 L5.31234741,8.9473343 L6.65233611,8.17371369 L6.65233611,9.76627351 L5.31234741,10.5398941 Z M8.87466431,10.5398941 L7.53467561,9.76627351 L7.53467561,8.17371369 L8.87477874,8.9473343 L8.87477874,10.5398941 L8.87466431,10.5398941 Z" id="Shape"></path>
                </g>
            </g>
        </g>
    </g>
</svg>